<svg width="16" height="24" viewBox="0 0 16 24" fill="none" xmlns="http://www.w3.org/2000/svg">
<path d="M13.625 5.672H8.69844V2.05536L13.0251 1.39841C13.409 1.34014 13.673 0.981594 13.6147 0.597688C13.5564 0.213782 13.1978 -0.0505932 12.814 0.0080943L7.88975 0.755751C7.54611 0.807922 7.29214 1.10333 7.29214 1.45091V5.67195H2.375C1.21189 5.67195 0.265625 6.61817 0.265625 7.78133V9.18758C0.265625 9.57589 0.580437 9.8907 0.96875 9.8907H1.73375L3.07686 23.3666C3.11272 23.7261 3.41525 24 3.77656 24H12.2188C12.5802 24 12.8827 23.726 12.9185 23.3664L14.2571 9.89075H15.0312C15.4196 9.89075 15.7344 9.57594 15.7344 9.18763V7.78138C15.7344 6.61822 14.7881 5.672 13.625 5.672ZM12.0756 17.625H3.91784L3.6373 14.8102H12.3552L12.0756 17.625ZM4.41308 22.5937L4.058 19.0313H11.9359L11.582 22.5937H4.41308ZM12.4949 13.404H3.49714L3.14698 9.8907H12.8439L12.4949 13.404ZM14.3281 8.4845C13.7385 8.4845 2.53006 8.4845 1.67188 8.4845V7.78138C1.67188 7.39367 1.9873 7.07825 2.375 7.07825H13.625C14.0127 7.07825 14.3281 7.39363 14.3281 7.78138V8.4845Z" fill="#282828" fill-opacity="0.9"/>
</svg>
