<svg width="24" height="24" viewBox="0 0 24 24" fill="none" xmlns="http://www.w3.org/2000/svg">
<path d="M23.7554 2.45835C23.6104 2.2439 23.319 2.18755 23.1046 2.33258L16.0461 7.10497C15.6955 6.51022 15.1274 6.04222 14.4401 5.78085L19.3966 0.799349C19.5792 0.615834 19.5784 0.319021 19.3949 0.136443C19.2114 -0.0461352 18.9146 -0.0453852 18.732 0.13813L13.3428 5.55458C13.1544 5.54568 12.9657 5.55088 12.7781 5.57141C12.0423 4.80079 10.9579 4.34755 9.82324 4.34755C8.68778 4.34755 7.603 4.80074 6.86702 5.57136C6.7375 5.55716 6.60733 5.54999 6.47782 5.54999C4.89382 5.54999 3.56421 6.55986 3.27541 7.93832C2.32019 8.47391 1.73688 9.41202 1.73688 10.4393C1.73688 10.5313 1.74161 10.6231 1.75103 10.7143C0.849675 11.3399 0.317409 12.3019 0.167128 13.5788C0.166987 13.5798 0.167034 13.5808 0.16694 13.5818C0.16605 13.5898 0.165815 13.5979 0.165347 13.6059C0.164831 13.6141 0.164175 13.6224 0.164081 13.6306C0.164081 13.6316 0.16394 13.6326 0.16394 13.6335C0.16394 15.9466 1.17602 18.1179 3.01371 19.7476C3.69639 20.353 4.46289 20.8564 5.28972 21.2493V23.1312C5.28972 23.6102 5.70222 23.9999 6.20922 23.9999H13.4372C13.9442 23.9999 14.3567 23.6102 14.3567 23.1312V21.2493C15.1835 20.8564 15.95 20.353 16.6327 19.7476C18.4507 18.1355 19.46 15.993 19.4815 13.7078C19.577 13.3842 19.7545 12.5399 19.3185 11.7471C19.0362 11.2339 18.5613 10.8539 17.9039 10.6143C17.9077 10.5561 17.9096 10.4977 17.9096 10.4393C17.9096 9.43471 17.3515 8.51563 16.4336 7.9746L23.6297 3.10926C23.8441 2.96422 23.9004 2.67285 23.7554 2.45835V2.45835ZM13.4193 23.0625H6.22727V21.6376C7.35583 22.041 8.57149 22.2527 9.82324 22.2527C11.075 22.2527 12.2907 22.041 13.4193 21.6376V23.0625ZM9.82324 21.3152C6.19483 21.3152 3.07708 19.3535 1.76467 16.5711H5.33566C5.59455 16.5711 5.80441 16.3613 5.80441 16.1024C5.80441 15.8435 5.59455 15.6336 5.33566 15.6336H1.40191C1.25088 15.1408 1.15371 14.6288 1.11752 14.1024H18.529C18.4929 14.6288 18.3956 15.1408 18.2446 15.6336H10.0825C9.82366 15.6336 9.6138 15.8435 9.6138 16.1024C9.6138 16.3613 9.82366 16.5711 10.0825 16.5711H17.8818C16.5694 19.3535 13.4517 21.3152 9.82324 21.3152ZM15.748 8.67182C16.5031 9.02422 16.9721 9.70152 16.9721 10.4394C16.9721 10.5738 16.9566 10.7074 16.9261 10.8367C16.8674 11.0857 17.0192 11.3359 17.2672 11.3987C17.876 11.553 18.2898 11.8223 18.4971 12.1991C18.6814 12.5342 18.6792 12.905 18.6421 13.1649H1.19144C1.39146 12.3352 1.82111 11.7384 2.49724 11.3511C2.67728 11.2479 2.76808 11.0386 2.72041 10.8366C2.68989 10.7073 2.67442 10.5737 2.67442 10.4394C2.67442 9.70147 3.14346 9.02418 3.89847 8.67177C4.04655 8.60268 4.14794 8.46144 4.16603 8.29902C4.28135 7.26627 5.27524 6.48749 6.47782 6.48749C6.63972 6.48749 6.80308 6.50268 6.96344 6.53263C7.13191 6.56413 7.3038 6.50132 7.41227 6.3688C7.96793 5.69015 8.86924 5.28496 9.82324 5.28496C10.7764 5.28496 11.6772 5.69015 12.2329 6.3688C12.2935 6.44277 12.3766 6.49715 12.4686 6.52307C12.5721 6.55222 12.6674 6.53319 12.7711 6.51749C13.0065 6.48182 13.2417 6.48205 13.4782 6.5053C14.2692 6.59535 14.9361 7.02618 15.2673 7.63147L13.7258 8.67374C13.259 8.31679 12.6569 8.10112 11.9999 8.10112C11.741 8.10112 11.5312 8.31097 11.5312 8.56987C11.5312 8.82876 11.741 9.03862 11.9999 9.03862C12.5363 9.03862 13.0166 9.24726 13.3368 9.57458C13.3398 9.57815 13.3434 9.5811 13.3466 9.58452C13.5946 9.84257 13.7437 10.1728 13.7437 10.5324C13.7437 10.7913 13.9536 11.0011 14.2125 11.0011C14.4714 11.0011 14.6812 10.7913 14.6812 10.5324C14.6812 10.1146 14.5644 9.72121 14.3588 9.37747L15.5873 8.5469C15.6306 8.59893 15.6847 8.64224 15.748 8.67182V8.67182Z" fill="black"/>
</svg>
