<svg width="24" height="20" viewBox="0 0 24 20" fill="none" xmlns="http://www.w3.org/2000/svg">
<path d="M23.3694 13.4503C23.6421 13.095 23.8047 12.6511 23.8047 12.1697C23.8047 11.1121 23.0205 10.2342 22.0026 10.085C22.2701 9.72766 22.4991 9.31652 22.6805 8.86094C22.6808 8.86 22.6817 8.85939 22.6828 8.85939H23.037C23.568 8.85939 24 8.48233 24 8.01883C24 5.73025 22.6672 3.82113 20.1456 2.49784C17.9882 1.36572 15.0954 0.742188 12 0.742188C11.9998 0.742188 11.9996 0.742188 11.9994 0.742188H11.9993C11.9993 0.742188 11.9992 0.742188 11.9992 0.742188C8.90409 0.742281 6.01158 1.36581 3.85444 2.49784C1.33284 3.82117 0 5.7303 0 8.01883C0 8.49016 0.423 8.85939 0.963047 8.85939H1.31714C1.31817 8.85939 1.31906 8.86 1.31944 8.86094C1.50066 9.31623 1.72959 9.72738 1.99706 10.0849C0.979359 10.2338 0.195328 11.1118 0.195328 12.1697C0.195328 12.6509 0.357703 13.0948 0.630141 13.45C0.262031 13.6 0.115875 13.867 0.0629063 14.006C-0.104203 14.4446 0.077625 14.9865 0.526547 15.3866C3.29138 17.8469 7.47333 19.2578 12 19.2578C16.5267 19.2578 20.7086 17.8469 23.4742 15.3861C23.9222 14.9857 24.1035 14.4438 23.9363 14.0056C23.8833 13.8668 23.7372 13.6003 23.3694 13.4503ZM3.3802 10.1704C3.37786 10.1684 3.37533 10.1667 3.37294 10.1648C2.96522 9.85324 2.61291 9.40895 2.34455 8.86305C2.3437 8.86136 2.34497 8.85939 2.3468 8.85939H4.23286C4.23366 8.85939 4.23445 8.85977 4.23492 8.86042L5.42784 10.5398C5.42883 10.5412 5.42817 10.5431 5.42662 10.5437C4.97152 10.7038 4.49925 10.7019 4.03837 10.5344C3.80705 10.4504 3.58673 10.3271 3.3802 10.1704ZM5.38688 8.86333C5.3857 8.86169 5.38687 8.85939 5.38894 8.85939H11.2608C11.2628 8.85939 11.264 8.86169 11.2628 8.86333L9.93558 10.7325C9.93464 10.7338 9.9337 10.7351 9.93281 10.7364L8.32744 12.9972C8.32645 12.9986 8.32434 12.9986 8.32336 12.9972L5.38688 8.86333ZM12.4147 8.86042C12.4152 8.85977 12.4159 8.85939 12.4168 8.85939H21.6531C21.655 8.85939 21.6562 8.86141 21.6554 8.86305C21.3929 9.39677 21.0505 9.83308 20.6545 10.1432C20.6411 10.1523 20.6283 10.1622 20.616 10.1726C20.4047 10.3323 20.1789 10.4572 19.9417 10.541C19.3141 10.7626 18.668 10.6787 18.0729 10.2982C17.8636 10.1644 17.5862 10.2171 17.4406 10.4184C17.0132 11.0094 16.4591 11.3348 15.8805 11.3348C15.3019 11.3348 14.7478 11.0094 14.3204 10.4184C14.1333 10.1597 13.7481 10.1597 13.5608 10.4183C13.1583 10.9745 12.6369 11.2991 12.0928 11.3323C11.6926 11.3568 11.2927 11.22 10.9383 10.9438C10.9373 10.9429 10.937 10.9414 10.9378 10.9403L12.4147 8.86042ZM1.63617 7.92189H0.963047C0.954094 7.92189 0.945891 7.92128 0.938531 7.92025C0.987094 5.55602 2.78147 4.11967 4.29009 3.32795C4.617 3.15639 4.96275 2.99748 5.32467 2.85128C5.32631 2.85063 5.32814 2.85184 5.32814 2.85362V3.4885C5.32814 3.73947 5.51742 3.95964 5.76792 3.97469C6.03994 3.99105 6.26564 3.77528 6.26564 3.50683V2.51392C6.26564 2.51284 6.26634 2.51186 6.26737 2.51153C6.94598 2.29408 7.66936 2.11731 8.42639 1.98348C8.42794 1.9832 8.42934 1.98442 8.42934 1.98597V4.06877C8.42934 4.31973 8.61862 4.53991 8.86912 4.55495C9.14114 4.57131 9.36684 4.35555 9.36684 4.08709V1.8437C9.36684 1.84244 9.36778 1.84136 9.36905 1.84122C10.0683 1.75342 10.7907 1.70083 11.528 1.68508C11.5294 1.68503 11.5305 1.6862 11.5305 1.68761V4.58266C11.5305 4.83362 11.7198 5.0538 11.9703 5.06884C12.2423 5.0852 12.468 4.86944 12.468 4.60098V1.68756C12.468 1.68616 12.4692 1.68503 12.4706 1.68503C13.208 1.70073 13.9303 1.75328 14.6295 1.84103C14.6308 1.84117 14.6318 1.84225 14.6318 1.84352V4.06872C14.6318 4.31969 14.821 4.53986 15.0715 4.55491C15.3435 4.57127 15.5693 4.3555 15.5693 4.08705V1.98573C15.5693 1.98419 15.5707 1.98297 15.5722 1.98325C16.3297 2.11708 17.0535 2.29394 17.7325 2.51153C17.7336 2.51186 17.7343 2.51284 17.7343 2.51392V3.4885C17.7343 3.73947 17.9235 3.95964 18.174 3.97469C18.4461 3.99105 18.6718 3.77528 18.6718 3.50683V2.85367C18.6718 2.85189 18.6736 2.85067 18.6752 2.85133C19.0372 2.99753 19.3829 3.15644 19.7098 3.328C21.2184 4.11972 23.0128 5.55602 23.0614 7.92025C23.054 7.92123 23.0458 7.92189 23.0369 7.92189H22.3645C22.3638 7.92189 22.363 7.92189 22.3622 7.92189H1.63645C1.63636 7.92189 1.63627 7.92189 1.63617 7.92189ZM2.30372 10.9999H2.9272C3.17592 11.1746 3.44067 11.3148 3.71822 11.4156C4.05473 11.5379 4.39983 11.5984 4.74422 11.5984C5.16511 11.5984 5.58483 11.5078 5.98575 11.3287C5.98683 11.3282 5.98809 11.3285 5.9888 11.3295L7.41473 13.3369C7.41591 13.3385 7.41473 13.3408 7.41267 13.3408H2.30372C1.65811 13.3408 1.13283 12.8155 1.13283 12.1697C1.13283 11.5247 1.65811 10.9999 2.30372 10.9999ZM23.0439 14.4263C23.0185 14.4924 22.9619 14.5866 22.8503 14.6864C17.3744 19.5587 6.62559 19.5587 1.15003 14.6867C1.03786 14.5866 0.980953 14.4923 0.9555 14.4262C0.936375 14.3765 0.965437 14.3213 1.01648 14.3063C1.06744 14.2913 1.14441 14.2783 1.254 14.2783H13.4612C13.7122 14.2783 13.9323 14.089 13.9474 13.8385C13.9637 13.5665 13.748 13.3408 13.4795 13.3408H9.23803C9.23602 13.3408 9.2348 13.3385 9.23597 13.3369L10.3915 11.7096C10.3923 11.7085 10.3939 11.7082 10.395 11.7091C10.8788 12.0768 11.4307 12.2727 11.9986 12.2727C12.0489 12.2727 12.0993 12.2711 12.1499 12.2681C12.8062 12.2281 13.4258 11.9306 13.9383 11.4179C13.9393 11.4169 13.9409 11.4169 13.9418 11.4179C14.4943 11.9727 15.1668 12.2723 15.8805 12.2724C16.6451 12.2724 17.3627 11.9283 17.9358 11.295C17.9366 11.2942 17.9377 11.294 17.9387 11.2945C18.679 11.6477 19.4873 11.6958 20.2539 11.425C20.5414 11.3235 20.8154 11.1802 21.0722 10.9999H21.695C22.3413 10.9999 22.8672 11.5247 22.8672 12.1698C22.8672 12.8155 22.3413 13.3409 21.695 13.3409H17.7072C17.4562 13.3409 17.236 13.5302 17.221 13.7807C17.2046 14.0527 17.4204 14.2784 17.6888 14.2784H22.7446C22.8545 14.2784 22.9316 14.2914 22.9827 14.3064C23.0338 14.3213 23.0629 14.3765 23.0439 14.4263Z" fill="#282828"/>
</svg>
