<svg width="24" height="16" viewBox="0 0 24 16" fill="none" xmlns="http://www.w3.org/2000/svg">
<path d="M23.5028 12.8351C23.2214 12.361 22.8312 11.8744 22.362 11.4025V6.17739C22.8736 5.41506 23.1326 4.63792 23.1321 3.86537C23.1316 3.11144 22.8757 2.39045 22.3919 1.78028C21.7868 1.01711 20.8602 0.467029 19.7828 0.231341C18.6796 -0.00997125 17.5164 0.0902943 16.4127 0.521076H10.881C10.5758 0.386872 10.2503 0.280701 9.90956 0.206123C8.83627 -0.0287679 7.70587 0.0598258 6.62883 0.461451C5.55187 0.0598726 4.42186 -0.0286744 3.34866 0.206029C2.27119 0.441763 1.34466 0.991842 0.739688 1.75506C0.256078 2.36533 0.000234604 3.08631 2.28618e-07 3.84025C-0.000281021 4.61279 0.258938 5.38989 0.770766 6.15222V11.6092C0.770766 12.8684 1.64578 13.8179 2.80608 13.8179H4.41553C4.36997 14.0032 4.34648 14.1823 4.34808 14.3527C4.35263 14.8444 4.55395 15.2506 4.93055 15.5273C5.28717 15.7895 5.79108 15.9224 6.4282 15.9224H13.5582C13.8171 15.9224 14.027 15.7125 14.027 15.4536C14.027 15.1948 13.8171 14.9849 13.5582 14.9849H6.4282C5.29144 14.9849 5.28698 14.5025 5.28553 14.344C5.27916 13.653 6.0787 12.3287 7.84922 11.0538C8.04923 10.9097 8.28914 10.7477 8.565 10.5786C8.9198 11.8761 9.56775 12.0899 9.9547 12.0899C10.336 12.0899 10.8654 11.8933 11.2219 10.9567C11.3939 10.505 11.5092 9.91412 11.5542 9.26692C11.8735 9.17739 12.2069 9.09925 12.5536 9.0362C12.5425 10.2387 12.7686 11.5534 13.3417 12.1718C13.6387 12.4922 13.958 12.5595 14.1735 12.5595C14.39 12.5595 14.7105 12.4917 15.0083 12.1688C15.5897 11.5382 15.8126 10.2005 15.7934 8.98201C16.1375 9.03869 16.47 9.11345 16.7888 9.20176C16.8779 10.6554 17.3358 12.0899 18.3922 12.0899C18.784 12.0899 19.4388 11.8718 19.7907 10.5485C20.4493 10.9646 21.0534 11.4366 21.561 11.9263C21.5622 11.9275 21.5635 11.9286 21.5648 11.9298C22.0375 12.3864 22.4263 12.8581 22.6968 13.3137C23.0329 13.8797 23.1454 14.3724 22.9978 14.6316C22.8682 14.8594 22.4854 14.9848 21.92 14.9848H17.7677C17.5088 14.9848 17.2989 15.1947 17.2989 15.4536C17.2989 15.7124 17.5088 15.9223 17.7677 15.9223H21.92C23.0952 15.9223 23.5978 15.4727 23.8125 15.0955C24.043 14.6905 24.1764 13.9696 23.5028 12.8351ZM9.95466 11.1524C9.84248 11.1524 9.5835 10.8879 9.41386 10.1041C9.76809 9.92415 10.159 9.74772 10.583 9.58675C10.4555 10.6291 10.1373 11.1524 9.95466 11.1524ZM11.6372 5.73503C11.581 5.81425 11.5507 5.90903 11.5507 6.0062V8.3028C8.40717 9.11744 5.81948 11.117 4.80694 12.8804H2.80608C2.08538 12.8804 1.70827 12.2409 1.70827 11.6092V6.00625C1.70827 5.90908 1.67803 5.81429 1.62183 5.73508C0.769359 4.53315 0.715594 3.29481 1.47441 2.33748C2.35739 1.22345 4.35084 0.543341 6.45211 1.39872C6.56545 1.44484 6.69225 1.44484 6.80559 1.39872C8.90728 0.543107 10.9011 1.2235 11.7844 2.3379C12.5431 3.29509 12.4895 4.53329 11.6372 5.73503ZM14.319 11.5332C14.2372 11.622 14.1892 11.622 14.1734 11.622C14.1578 11.622 14.1103 11.622 14.0292 11.5345C13.6819 11.1599 13.4636 10.0525 13.4933 8.90828C13.7385 8.88601 14.3445 8.86525 14.3943 8.86525C14.549 8.86525 14.7019 8.87012 14.8533 8.87847C14.8878 10.0333 14.6706 11.1519 14.319 11.5332ZM18.3921 11.1524C18.2085 11.1524 17.8794 10.5952 17.7569 9.52258C18.1906 9.68983 18.5881 9.87479 18.9427 10.0601C18.7741 10.8771 18.5078 11.1524 18.3921 11.1524ZM21.6432 5.56272H16.8348C16.576 5.56272 16.3661 5.77258 16.3661 6.03147C16.3661 6.29036 16.5759 6.50022 16.8348 6.50022H21.4246V10.5634C20.9583 10.19 20.4488 9.83879 19.9139 9.52604C18.6571 8.79142 16.6911 7.92775 14.3943 7.92775C14.3389 7.92775 13.4844 7.90628 12.4883 8.09912V6.15222C13.0001 5.38998 13.2592 4.61298 13.2589 3.84053C13.2586 3.08669 13.0028 2.3657 12.5191 1.75553C12.4374 1.65245 12.3494 1.55364 12.2564 1.45858H16.5027C16.5633 1.45858 16.6233 1.44681 16.6795 1.42398C18.7806 0.56856 20.7741 1.24872 21.6574 2.36275C22.3748 3.26758 22.3659 4.42365 21.6432 5.56272Z" fill="#282828"/>
</svg>
