<svg width="24" height="14" viewBox="0 0 24 14" fill="none" xmlns="http://www.w3.org/2000/svg">
<path d="M23.9143 8.48832C23.8264 8.36424 23.6838 8.29046 23.5317 8.29046H23.3841C23.4038 8.2238 23.4216 8.15635 23.4356 8.0874C23.6902 6.83977 22.7601 6.12755 21.9394 5.49915C21.8846 5.45719 21.8296 5.41515 21.7751 5.37301L20.926 4.71568C21.0398 4.31743 21.0288 3.92377 20.8887 3.57076C20.6908 3.07233 20.2469 2.69555 19.6392 2.50993L16.6888 1.60477L16.7616 1.26591C16.8199 0.997131 16.7524 0.725584 16.5715 0.501287C16.3632 0.242959 16.0253 0.0824585 15.6897 0.0824585H8.31131C7.97606 0.0824585 7.63837 0.242349 7.42997 0.49974C7.2487 0.723709 7.18041 0.995162 7.23783 1.26507L7.3109 1.60487L6.09984 1.97691L4.36073 2.50979C3.75323 2.69555 3.30984 3.07229 3.11212 3.57052C2.97211 3.92354 2.96109 4.31715 3.07486 4.7154L2.2244 5.37296C2.16914 5.41576 2.11373 5.45827 2.05842 5.50065C1.23937 6.12863 0.311108 6.84047 0.563905 8.08716C0.57792 8.15612 0.595733 8.22366 0.615561 8.29041H0.469217C0.317295 8.29041 0.174795 8.36405 0.0869047 8.48799C-0.000985872 8.61193 -0.0233921 8.77074 0.0268579 8.91413C0.0655298 9.02462 0.107483 9.1569 0.15192 9.29691C0.445639 10.223 0.81117 11.3756 1.70625 11.3756H4.64906C4.68553 11.483 4.72026 11.5957 4.75584 11.712C4.96561 12.3973 5.25291 13.3359 6.285 13.3359H17.7159C18.7478 13.3359 19.0352 12.3961 19.245 11.7098C19.2803 11.5943 19.3147 11.4824 19.3509 11.3756H22.2933C23.187 11.3756 23.553 10.2256 23.847 9.3016C23.892 9.16004 23.9346 9.02635 23.9738 8.91488C24.0243 8.77144 24.0022 8.6124 23.9143 8.48832ZM20.5103 5.57949L21.2014 6.11452C21.2573 6.15774 21.3134 6.20068 21.3693 6.24347C22.166 6.85346 22.6477 7.25982 22.5169 7.90013C22.4887 8.03832 22.4413 8.16877 22.376 8.29041H18.9619L20.5103 5.57949ZM16.491 2.52474L19.3648 3.40637C19.5983 3.47771 19.9012 3.62415 20.0173 3.9166C20.1132 4.15833 20.0654 4.4679 19.8826 4.78819L17.8823 8.29041H15.252L16.491 2.52474ZM8.31131 1.02001H15.6896C15.7527 1.02001 15.8179 1.05999 15.8409 1.08816L14.2931 8.29041H9.70772L8.15883 1.08877C8.18147 1.06046 8.24733 1.02001 8.31131 1.02001ZM3.98358 3.91632C4.09955 3.62401 4.4018 3.47766 4.63514 3.40627L6.37476 2.87326L7.50872 2.52488L8.74875 8.29041H6.11859L4.11839 4.78833C3.93548 4.4679 3.88762 4.15819 3.98358 3.91632ZM2.62894 6.24465C2.68537 6.20138 2.74195 6.15797 2.79815 6.11447L3.49045 5.57921L5.03897 8.29041H1.6245C1.5584 8.16821 1.51069 8.0378 1.4827 7.90051C1.3529 7.26062 1.8337 6.8544 2.62894 6.24465ZM22.584 10.0262C22.4077 10.3929 22.291 10.4379 22.2934 10.4381H19.0373C19.0365 10.4381 14.1032 10.4381 14.1032 10.4381C13.8443 10.4381 13.6344 10.6479 13.6344 10.9068C13.6344 11.1657 13.8443 11.3756 14.1032 11.3756H18.367C18.3609 11.3956 18.3546 11.4158 18.3485 11.4357C18.124 12.1698 18.0075 12.3984 17.7159 12.3984H6.285C5.99306 12.3984 5.87653 12.1703 5.65228 11.4376C5.646 11.4171 5.63948 11.3963 5.63315 11.3756H9.89245C10.1513 11.3756 10.3612 11.1657 10.3612 10.9068C10.3612 10.6479 10.1513 10.4381 9.89245 10.4381L4.97442 10.4384C4.96856 10.4384 4.96275 10.4382 4.95684 10.4384L1.71075 10.4386C1.70962 10.4383 1.59225 10.3943 1.41483 10.0246C1.3013 9.78797 1.20258 9.50213 1.11394 9.22791H18.1525C18.153 9.22791 18.1535 9.22801 18.154 9.22801C18.1545 9.22801 18.1549 9.22791 18.1554 9.22791H22.8862C22.7971 9.50265 22.698 9.78938 22.584 10.0262Z" fill="#282828"/>
</svg>
